<?xml version="1.0" encoding="UTF-8" standalone="no"?>
<svg
   xmlns:dc="http://purl.org/dc/elements/1.1/"
   xmlns:cc="http://creativecommons.org/ns#"
   xmlns:rdf="http://www.w3.org/1999/02/22-rdf-syntax-ns#"
   xmlns:svg="http://www.w3.org/2000/svg"
   xmlns="http://www.w3.org/2000/svg"
   xmlns:sodipodi="http://sodipodi.sourceforge.net/DTD/sodipodi-0.dtd"
   xmlns:inkscape="http://www.inkscape.org/namespaces/inkscape"
   preserveAspectRatio="xMidYMid meet"
   data-bbox="1.22 2.22 172.911 64.52"
   viewBox="1.22 2.22 360.00001 64.52"
   data-type="color"
   role="img"
   version="1.1"
   id="svg36"
   sodipodi:docname="camp.svg"
   width="360"
   height="64.519997"
   inkscape:version="0.92.4 (5da689c313, 2019-01-14)">
  <metadata
     id="metadata42">
    <rdf:RDF>
      <cc:Work
         rdf:about="">
        <dc:format>image/svg+xml</dc:format>
        <dc:type
           rdf:resource="http://purl.org/dc/dcmitype/StillImage" />
        <dc:title></dc:title>
      </cc:Work>
    </rdf:RDF>
  </metadata>
  <defs
     id="defs40" />
  <sodipodi:namedview
     pagecolor="#ffffff"
     bordercolor="#666666"
     borderopacity="1"
     objecttolerance="10"
     gridtolerance="10"
     guidetolerance="10"
     inkscape:pageopacity="0"
     inkscape:pageshadow="2"
     inkscape:window-width="1366"
     inkscape:window-height="745"
     id="namedview38"
     showgrid="false"
     inkscape:zoom="2.2034458"
     inkscape:cx="156.94259"
     inkscape:cy="39.067518"
     inkscape:window-x="-8"
     inkscape:window-y="-8"
     inkscape:window-maximized="1"
     inkscape:current-layer="svg36" />
  <path
     style="fill:#0033a1"
     inkscape:connector-curvature="0"
     id="path2"
     data-color="1"
     d="M 33.48,2.2200136 A 32.26,32.26 0 1 0 65.74,34.480012 32.26,32.26 0 0 0 33.48,2.2200136 Z m 0,57.5499984 a 25.29,25.29 0 1 1 25.28,-25.29 25.29,25.29 0 0 1 -25.28,25.29 z" />
  <path
     style="fill:#f5a800"
     inkscape:connector-curvature="0"
     id="path4"
     data-color="2"
     d="m 33.48,52.790012 a 18.31,18.31 0 1 1 12.58,-31.6 l 4.8,-5.07 a 25.29,25.29 0 1 0 0.78,36 l -5,-4.86 a 18.25,18.25 0 0 1 -13.16,5.53 z" />
  <path
     style="fill:#0033a1"
     inkscape:connector-curvature="0"
     id="path6"
     data-color="1"
     d="m 33.48,22.710012 a 11.77,11.77 0 1 0 11.77,11.77 11.77,11.77 0 0 0 -11.77,-11.77 z" />
  <path
     style="fill:#0033a1;stroke-width:1"
     inkscape:connector-curvature="0"
     id="path8"
     data-color="1"
     d="m 113.33472,49.700528 -2.871,-6.516 h -10.026 l -2.933996,6.516 h -4.319999 l 12.239995,-26.298 12.24,26.298 z m -11.367,-9.9 h 7.056 l -2.592,-5.769 c -0.153,-0.369 -0.306,-0.792 -0.468,-1.269 -0.162,-0.477 -0.324,-1.017 -0.486,-1.602 -0.135,0.549 -0.279,1.071 -0.441,1.548 -0.162,0.477 -0.315,0.9 -0.477,1.323 z" />
  <path
     style="fill:#0033a1;stroke-width:1"
     inkscape:connector-curvature="0"
     id="path10"
     data-color="1"
     d="m 141.52272,37.208528 a 16.245,16.245 0 0 1 -0.225,-1.62 q -0.153,-1.107 -0.243,-1.8 a 13.5,13.5 0 0 1 -0.441,1.728 14.859,14.859 0 0 1 -0.72,1.8 l -6.57,12.384 -6.633,-12.735 c -0.279,-0.567 -0.513,-1.107 -0.72,-1.638 -0.207,-0.531 -0.369,-1.053 -0.522,-1.575 a 15.642,15.642 0 0 1 -0.126,1.665 c -0.081,0.585 -0.189,1.188 -0.342,1.8 l -2.7,12.456 h -3.789 l 5.985,-26.37 7.461,15.966 c 0.117,0.252 0.288,0.675 0.531,1.26 0.243,0.585 0.477,1.323 0.855,2.223 a 27.225,27.225 0 0 1 1.134,-2.763 c 0.144,-0.297 0.243,-0.531 0.315,-0.693 l 7.29,-15.948 6.12,26.37 h -3.816 z" />
  <path
     style="fill:#0033a1;stroke-width:1"
     inkscape:connector-curvature="0"
     id="path12"
     data-color="1"
     d="m 152.79072,38.351528 v 11.349 h -3.852 v -25.299 h 6.219 a 19.251,19.251 0 0 1 4.068,0.306 6.3,6.3 0 0 1 2.277,0.99 5.886,5.886 0 0 1 1.863,2.376 7.929,7.929 0 0 1 0.675,3.294 8.1,8.1 0 0 1 -0.675,3.321 5.796,5.796 0 0 1 -1.863,2.385 6.3,6.3 0 0 1 -2.277,0.981 20.025,20.025 0 0 1 -4.068,0.297 z m 0.261,-3.375 h 1.053 c 2.277,0 3.798,-0.243 4.563,-0.738 a 2.916,2.916 0 0 0 1.143,-2.628 3.204,3.204 0 0 0 -1.224,-2.853 c -0.81,-0.549 -2.304,-0.828 -4.5,-0.828 h -1.053 z" />
  <path
     style="fill:#f5a800;stroke-width:1"
     inkscape:connector-curvature="0"
     id="path14"
     data-color="2"
     d="m 174.85257,45.033139 a 4.344,4.344 0 0 0 1.176,1.08 2.4,2.4 0 0 0 1.2,0.336 1.776,1.776 0 0 0 1.632,-0.768 5.736,5.736 0 0 0 0.48,-2.856 v -17.76 h 3.936 v 19.032 a 6.432,6.432 0 0 1 -1.368,4.56 5.544,5.544 0 0 1 -4.272,1.464 6.648,6.648 0 0 1 -2.784,-0.528 8.136,8.136 0 0 1 -2.4,-1.92 z" />
  <path
     style="fill:#f5a800;stroke-width:1"
     inkscape:connector-curvature="0"
     id="path16"
     data-color="2"
     d="m 203.10057,49.545139 -2.76,-6.288 h -9.6 l -2.832,6.288 h -4.248 l 11.832,-25.368 11.808,25.368 z m -10.968,-9.6 h 6.72 l -2.4,-5.568 c -0.144,-0.36 -0.312,-0.768 -0.456,-1.224 -0.144,-0.456 -0.312,-0.984 -0.48,-1.56 0,0.552 -0.264,1.032 -0.408,1.512 l -0.456,1.272 z" />
  <path
     style="fill:#f5a800;stroke-width:1"
     inkscape:connector-curvature="0"
     id="path18"
     data-color="2"
     d="m 207.99657,49.545139 v -24.408 h 6.144 a 19.056,19.056 0 0 1 3.888,0.288 5.904,5.904 0 0 1 2.16,0.936 5.448,5.448 0 0 1 1.752,2.184 7.2,7.2 0 0 1 0.624,2.976 5.64,5.64 0 0 1 -0.912,3.264 4.656,4.656 0 0 1 -2.616,1.824 4.944,4.944 0 0 1 3.36,1.944 6.528,6.528 0 0 1 1.224,4.056 7.992,7.992 0 0 1 -0.504,2.832 6.672,6.672 0 0 1 -1.464,2.256 5.76,5.76 0 0 1 -2.4,1.44 21.6,21.6 0 0 1 -4.992,0.408 z m 3.888,-14.112 h 1.512 a 7.536,7.536 0 0 0 4.008,-0.768 2.856,2.856 0 0 0 1.176,-2.616 3.336,3.336 0 0 0 -1.08,-2.808 7.44,7.44 0 0 0 -4.104,-0.792 h -1.512 z m 0,10.8 h 1.368 a 19.608,19.608 0 0 0 3.096,-0.168 4.44,4.44 0 0 0 1.656,-0.576 3.36,3.36 0 0 0 1.128,-1.32 3.984,3.984 0 0 0 0.408,-1.8 3.936,3.936 0 0 0 -0.504,-2.016 3.408,3.408 0 0 0 -1.368,-1.368 6.312,6.312 0 0 0 -1.296,-0.408 10.248,10.248 0 0 0 -1.92,-0.144 h -2.568 z" />
  <path
     style="fill:#f5a800;stroke-width:1"
     inkscape:connector-curvature="0"
     id="path20"
     data-color="2"
     d="m 242.17257,49.545139 -2.76,-6.288 h -9.6 l -2.832,6.288 h -4.128 l 11.832,-25.368 11.808,25.368 z m -10.968,-9.6 h 6.816 l -2.4,-5.568 c -0.144,-0.36 -0.312,-0.768 -0.456,-1.224 -0.144,-0.456 -0.312,-0.984 -0.48,-1.56 0,0.552 -0.264,1.032 -0.408,1.512 l -0.456,1.272 z" />
  <path
     style="fill:#f5a800;stroke-width:1"
     inkscape:connector-curvature="0"
     id="path22"
     data-color="2"
     d="m 267.80457,46.233139 5.184,5.592 h -4.8 l -3.192,-3.432 a 14.808,14.808 0 0 1 -3.312,1.296 14.208,14.208 0 0 1 -3.528,0.456 12.48,12.48 0 0 1 -4.8,-1.008 12.84,12.84 0 0 1 -4.104,-2.712 12.336,12.336 0 0 1 -2.832,-4.128 12.864,12.864 0 0 1 0,-9.864 12,12 0 0 1 2.832,-4.2 12.888,12.888 0 0 1 4.2,-2.76 13.632,13.632 0 0 1 5.04,-0.96 13.416,13.416 0 0 1 5.016,0.96 12.648,12.648 0 0 1 4.152,2.76 13.008,13.008 0 0 1 2.856,4.128 12.672,12.672 0 0 1 0.984,4.8 12.528,12.528 0 0 1 -0.96,4.8 12.36,12.36 0 0 1 -2.736,4.272 z m -4.944,-5.424 2.4,2.4 a 9.312,9.312 0 0 0 1.632,-2.808 9.984,9.984 0 0 0 -0.144,-6.672 8.856,8.856 0 0 0 -1.92,-2.928 9.264,9.264 0 0 0 -2.928,-2.016 8.688,8.688 0 0 0 -6.816,0 9.384,9.384 0 0 0 -4.8,4.944 9.6,9.6 0 0 0 -0.648,3.504 8.88,8.88 0 0 0 2.592,6.48 8.736,8.736 0 0 0 6.408,2.616 8.88,8.88 0 0 0 1.992,-0.216 10.008,10.008 0 0 0 1.872,-0.72 l -4.368,-4.8 z" />
  <path
     style="fill:#f5a800;stroke-width:1"
     inkscape:connector-curvature="0"
     id="path24"
     data-color="2"
     d="m 274.33257,25.137139 h 3.912 v 14.832 a 7.2,7.2 0 0 0 1.536,4.944 7.008,7.008 0 0 0 9.096,0 7.008,7.008 0 0 0 1.536,-4.944 v -14.832 h 3.96 v 15.096 a 9.984,9.984 0 0 1 -2.4,7.416 12.792,12.792 0 0 1 -15.048,0 9.984,9.984 0 0 1 -2.4,-7.416 z" />
  <path
     style="fill:#f5a800;stroke-width:1"
     inkscape:connector-curvature="0"
     id="path26"
     data-color="2"
     d="m 313.76457,49.545139 -2.76,-6.288 h -9.6 l -2.832,6.288 h -4.176 l 11.808,-25.368 11.808,25.368 z m -10.968,-9.6 h 6.792 l -2.4,-5.568 c -0.144,-0.36 -0.288,-0.768 -0.456,-1.224 -0.168,-0.456 -0.312,-0.984 -0.456,-1.56 -0.144,0.552 -0.288,1.032 -0.432,1.512 a 12.984,12.984 0 0 1 -0.456,1.272 z" />
  <path
     style="fill:#f5a800;stroke-width:1"
     inkscape:connector-curvature="0"
     id="path28"
     data-color="2"
     d="m 322.35657,38.625139 v 10.92 h -3.72 v -24.408 h 5.544 a 18.672,18.672 0 0 1 3.768,0.312 6.168,6.168 0 0 1 2.4,1.056 5.928,5.928 0 0 1 1.752,2.28 7.632,7.632 0 0 1 0.6,3.072 6.72,6.72 0 0 1 -1.416,4.584 6.072,6.072 0 0 1 -4.176,1.992 l 8.4,11.112 h -4.656 l -8.112,-10.92 z m 0.264,-3.072 h 0.696 a 8.136,8.136 0 0 0 4.2,-0.744 2.928,2.928 0 0 0 1.032,-2.592 3.408,3.408 0 0 0 -1.104,-2.856 7.344,7.344 0 0 0 -4.128,-0.816 h -0.696 z" />
  <path
     style="fill:#f5a800;stroke-width:1"
     inkscape:connector-curvature="0"
     id="path30"
     data-color="2"
     d="m 352.28457,49.545139 -2.76,-6.288 h -9.6 l -2.832,6.288 h -4.176 l 11.808,-25.368 11.808,25.368 z m -10.968,-9.6 h 6.792 l -2.4,-5.568 c -0.144,-0.36 -0.288,-0.768 -0.456,-1.224 -0.168,-0.456 -0.312,-0.984 -0.456,-1.56 -0.144,0.552 -0.288,1.032 -0.432,1.512 a 12.984,12.984 0 0 1 -0.456,1.272 z" />
  <path
     style="fill:#0033a1;stroke-width:1"
     inkscape:connector-curvature="0"
     id="path32"
     data-color="1"
     d="m 85.191725,45.830528 a 9.324,9.324 0 1 1 6.408,-16.083 l 2.439,-2.583 a 12.879,12.879 0 1 0 0.396,18.288 l -2.511,-2.466 a 9.27,9.27 0 0 1 -6.732,2.844 z" />
</svg>
